<svg width="931" height="442" viewBox="0 0 931 442" fill="none" xmlns="http://www.w3.org/2000/svg">
<g id="about">
<g id="card">
<path id="Vector" d="M902.67 32V381.62C902.67 385.872 901.833 390.083 900.205 394.011C898.578 397.94 896.193 401.509 893.186 404.516C890.179 407.523 886.61 409.908 882.681 411.535C878.753 413.162 874.542 414 870.29 414H132.05C123.462 414 115.226 410.589 109.154 404.516C103.081 398.444 99.67 390.208 99.67 381.62V32C99.7752 23.48 103.232 15.3443 109.293 9.3549C115.353 3.36553 123.529 0.00461033 132.05 0H870.29C878.811 0.00461033 886.987 3.36553 893.047 9.3549C899.108 15.3443 902.565 23.48 902.67 32V32Z" fill="#F2F2F2"/>
<path id="Vector_2" opacity="0.3" d="M287.25 76H161.09C157.4 76.0027 153.862 77.4704 151.254 80.0806C148.645 82.6908 147.18 86.2299 147.18 89.92V261.09C147.183 264.78 148.65 268.318 151.261 270.926C153.871 273.535 157.41 275 161.1 275H287.25C289.078 275.001 290.888 274.643 292.578 273.944C294.267 273.246 295.802 272.222 297.096 270.93C298.389 269.638 299.416 268.105 300.117 266.416C300.817 264.728 301.179 262.918 301.18 261.09V89.92C301.18 88.0912 300.82 86.2802 300.119 84.5907C299.419 82.9012 298.393 81.3663 297.099 80.0736C295.806 78.7808 294.27 77.7557 292.58 77.0567C290.89 76.3578 289.079 75.9987 287.25 76Z" fill="#1D7DDC"/>
<path id="Vector_3" d="M902.67 32H99.67C99.7752 23.48 103.232 15.3443 109.293 9.3549C115.353 3.36553 123.529 0.00461033 132.05 0H870.29C878.811 0.00461033 886.987 3.36553 893.047 9.3549C899.108 15.3443 902.565 23.48 902.67 32V32Z" fill="#E6E6E6"/>
<path id="Vector_4" d="M130.67 23C134.536 23 137.67 19.866 137.67 16C137.67 12.134 134.536 9 130.67 9C126.804 9 123.67 12.134 123.67 16C123.67 19.866 126.804 23 130.67 23Z" fill="#F2F2F2"/>
<path id="Vector_5" d="M151.67 23C155.536 23 158.67 19.866 158.67 16C158.67 12.134 155.536 9 151.67 9C147.804 9 144.67 12.134 144.67 16C144.67 19.866 147.804 23 151.67 23Z" fill="#F2F2F2"/>
<path id="Vector_6" d="M172.67 23C176.536 23 179.67 19.866 179.67 16C179.67 12.134 176.536 9 172.67 9C168.804 9 165.67 12.134 165.67 16C165.67 19.866 168.804 23 172.67 23Z" fill="#F2F2F2"/>
<path id="Vector_7" d="M517.43 65H362.91C360.016 65 357.67 67.346 357.67 70.24V92.76C357.67 95.654 360.016 98 362.91 98H517.43C520.324 98 522.67 95.654 522.67 92.76V70.24C522.67 67.346 520.324 65 517.43 65Z" fill="#E6E6E6"/>
<path id="Vector_8" d="M847.43 65H692.91C690.016 65 687.67 67.346 687.67 70.24V92.76C687.67 95.654 690.016 98 692.91 98H847.43C850.324 98 852.67 95.654 852.67 92.76V70.24C852.67 67.346 850.324 65 847.43 65Z" fill="#E6E6E6"/>
<path id="Vector_9" d="M845.66 131H364.68C360.808 131 357.67 134.138 357.67 138.01V337.99C357.67 341.862 360.808 345 364.68 345H845.66C849.531 345 852.67 341.862 852.67 337.99V138.01C852.67 134.138 849.531 131 845.66 131Z" fill="#E6E6E6"/>
</g>
<g id="text">
<path id="Vector_10" d="M810.65 156H399.69C398.851 156 398.17 156.681 398.17 157.52V164.48C398.17 165.319 398.851 166 399.69 166H810.65C811.49 166 812.17 165.319 812.17 164.48V157.52C812.17 156.681 811.49 156 810.65 156Z" fill="#F2F2F2"/>
<path id="Vector_11" d="M810.65 184H399.69C398.851 184 398.17 184.681 398.17 185.52V192.48C398.17 193.319 398.851 194 399.69 194H810.65C811.49 194 812.17 193.319 812.17 192.48V185.52C812.17 184.681 811.49 184 810.65 184Z" fill="#F2F2F2"/>
<path id="Vector_12" d="M810.65 212H399.69C398.851 212 398.17 212.681 398.17 213.52V220.48C398.17 221.319 398.851 222 399.69 222H810.65C811.49 222 812.17 221.319 812.17 220.48V213.52C812.17 212.681 811.49 212 810.65 212Z" fill="#F2F2F2"/>
<path id="Vector_13" d="M810.65 240H399.69C398.851 240 398.17 240.681 398.17 241.52V248.48C398.17 249.319 398.851 250 399.69 250H810.65C811.49 250 812.17 249.319 812.17 248.48V241.52C812.17 240.681 811.49 240 810.65 240Z" fill="#F2F2F2"/>
<path id="Vector_14" d="M810.65 268H399.69C398.851 268 398.17 268.681 398.17 269.52V276.48C398.17 277.319 398.851 278 399.69 278H810.65C811.49 278 812.17 277.319 812.17 276.48V269.52C812.17 268.681 811.49 268 810.65 268Z" fill="#F2F2F2"/>
<path id="Vector_15" d="M810.65 296H399.69C398.851 296 398.17 296.681 398.17 297.52V304.48C398.17 305.319 398.851 306 399.69 306H810.65C811.49 306 812.17 305.319 812.17 304.48V297.52C812.17 296.681 811.49 296 810.65 296Z" fill="#F2F2F2"/>
</g>
<g id="character">
<path id="Vector_16" opacity="0.1" d="M60.6 441.05C45.42 443.9 42.65 432.25 42.65 432.25C42.65 432.25 40.76 421.89 40.07 421.12C39.9812 420.971 39.9246 420.805 39.9039 420.633C39.8832 420.46 39.899 420.286 39.95 420.12L43.6 430.6C43.6 430.6 46.6 436.9 57.84 435.95C64.22 435.41 67.37 434.23 68.89 433.3C69.3553 434.439 69.7298 435.612 70.01 436.81C70.87 440.44 60.6 441.05 60.6 441.05Z" fill="black"/>
<path id="Vector_17" d="M156.98 204.4C151.87 206.34 139.98 206.56 134.67 206.55C133.07 206.55 132.07 206.55 132.07 206.55L128.68 199.65L132.07 193.89C132.07 193.89 135.18 193.04 139.31 192.29C145.41 191.19 153.75 190.29 157.73 192.8C164.4 196.92 163.65 201.87 156.98 204.4Z" fill="#FEC2BE"/>
<path id="Vector_18" opacity="0.1" d="M134.67 206.55C133.07 206.55 132.07 206.55 132.07 206.55L128.68 199.65L132.07 193.89C132.07 193.89 135.18 193.04 139.31 192.29C135.96 194.75 127.9 200.09 134.67 206.55Z" fill="black"/>
<path id="Vector_19" d="M78.52 121.8L80.02 120.07C80.02 120.07 87.72 132.27 88.53 136.87C89.34 141.47 90.37 146.76 90.37 146.76C90.37 146.76 92.37 152.76 93.59 155.39C94.81 158.02 96.01 160.57 96.12 161.72C96.23 162.87 95.66 165.4 98.12 167.01C100.58 168.62 101.12 173.01 101.12 173.01C101.12 173.01 109.86 181.53 114.46 181.76C119.06 181.99 132.3 184.29 131.84 186.59C131.38 188.89 137.36 190.27 139.77 190.84C142.18 191.41 124.24 198.32 134.71 207.18C134.71 207.18 128.04 208.56 127.35 210.18C126.66 211.8 119.64 209.26 119.64 209.26C119.64 209.26 118.15 205.7 112.97 205.47C107.79 205.24 105.15 202.93 105.15 202.59C105.15 202.25 99.97 199.37 97.09 198.59C94.21 197.81 90.42 197.44 90.3 196.64C90.18 195.84 73.05 121.86 73.05 121.86L78.52 121.8Z" fill="#4C4981"/>
<path id="Vector_20" d="M78.52 121.8L80.02 120.07C80.02 120.07 87.72 132.27 88.53 136.87C89.34 141.47 90.37 146.76 90.37 146.76C90.37 146.76 92.37 152.76 93.59 155.39C94.81 158.02 96.01 160.57 96.12 161.72C96.23 162.87 95.66 165.4 98.12 167.01C100.58 168.62 101.12 173.01 101.12 173.01C101.12 173.01 109.86 181.53 114.46 181.76C119.06 181.99 132.3 184.29 131.84 186.59C131.38 188.89 137.36 190.27 139.77 190.84C142.18 191.41 124.24 198.32 134.71 207.18C134.71 207.18 128.04 208.56 127.35 210.18C126.66 211.8 119.64 209.26 119.64 209.26C119.64 209.26 118.15 205.7 112.97 205.47C107.79 205.24 105.15 202.93 105.15 202.59C105.15 202.25 99.97 199.37 97.09 198.59C94.21 197.81 90.42 197.44 90.3 196.64C90.18 195.84 73.05 121.86 73.05 121.86L78.52 121.8Z" fill="#192534"/>
<path id="Vector_21" d="M60.6 441.05C45.42 443.9 42.65 432.25 42.65 432.25C42.65 432.25 40.76 421.89 40.07 421.12C39.9812 420.971 39.9246 420.805 39.9039 420.633C39.8832 420.46 39.899 420.286 39.95 420.12V420.12C40.3593 418.364 41.1177 416.707 42.18 415.25C43.13 414.13 42.35 409.47 42.35 409.47L59.95 404.98C60.6991 406.644 61.2787 408.38 61.68 410.16C61.85 411.8 64.44 419.22 64.18 420.25C63.92 421.28 65.3 424.48 65.47 426.12C65.64 427.76 67.8 430.18 67.98 431.04C68.2669 431.816 68.6009 432.574 68.98 433.31C69.4453 434.449 69.8198 435.622 70.1 436.82C70.87 440.44 60.6 441.05 60.6 441.05Z" fill="#3F3D56"/>
<path id="Vector_22" opacity="0.1" d="M48.78 424.65C48.78 424.65 52.58 424.74 52.84 421.65L48.78 424.65Z" fill="black"/>
<path id="Vector_23" d="M114.79 322.67C112.89 325.51 110.73 337.94 110.73 337.94C109.904 339.576 109.434 341.369 109.35 343.2C109.44 345.62 107.97 350.02 107.97 350.02L103.18 367.88C103.18 367.88 103.7 372.63 101.89 375.99C100.08 379.35 100.25 378.32 101.11 384.19C101.97 390.06 100.11 395.49 96.97 397.19C93.83 398.89 98.35 402.97 98.35 402.97C98.35 402.97 78.5 408.32 74.35 405.04C70.2 401.76 76.51 385.54 76.51 385.54C76.51 385.54 75.51 371.9 76.16 369.92C76.81 367.94 79.79 351.02 79.79 351.02C79.79 351.02 81.6 343.34 80.91 342.02C80.22 340.7 81.34 337.02 81.34 337.02C81.34 337.02 84.27 332.87 84.01 331.58C83.75 330.29 84.88 327.96 84.88 327.96C84.88 327.96 76.08 314.5 76.88 311.96C77.68 309.42 76.54 305.41 76.54 305.41C76.54 305.41 75.43 303.5 74.09 301.22C72.45 298.42 70.47 295.06 69.81 294.02C68.96 292.68 66.92 287.02 65.81 283.76C65.33 282.37 65.01 281.42 65.01 281.42C65.01 281.42 63.62 306.79 62.42 309.42C61.22 312.05 59.42 332.42 59.42 332.42C58.7489 334.242 58.453 336.181 58.55 338.12C58.73 341.31 55.79 355.2 55.79 355.2C55.79 355.2 54.5 365.04 55.36 367.63C56.22 370.22 55.53 389.28 55.53 389.28C55.53 389.28 60.28 392.99 61.53 395.84C62.78 398.69 61.36 406.45 61.36 406.45C61.36 406.45 47.55 413.36 41.42 411.55C35.29 409.74 37.8 399.29 37.8 399.29C37.8 399.29 33.66 392.39 33.66 389.72C33.3541 386.071 32.8635 382.44 32.19 378.84C26.93 369.18 29 345.71 28.14 343.84C27.28 341.97 29.95 334.84 32.14 331.68C34.33 328.52 33.44 319.86 32.14 317.35C30.84 314.84 33.44 306.22 33.44 306.22C33.44 306.22 30.94 289.48 31.02 286.89C31.1 284.3 28.87 276.63 28.87 276.63C28.87 276.63 26.62 272.63 27.14 271.45C27.66 270.27 25.41 267.14 26.02 265.76C26.63 264.38 25.5 260.15 24.38 257.64C23.544 255.05 22.9285 252.394 22.54 249.7C22.01 246.7 21.62 244.1 21.62 244.1L35.86 232.62L71.18 223.35L84.56 219.04L97.56 239.57C97.56 239.57 98.9 241.72 100.09 244.2C101.09 246.33 102.03 248.71 101.87 250.2C101.655 252.069 102.081 253.956 103.08 255.55C103.08 255.55 110.85 280.14 110.67 287.21C110.49 294.28 113.43 309.82 113.43 309.82C113.43 309.82 116.69 319.82 114.79 322.67Z" fill="#192534"/>
<path id="Vector_24" d="M62.23 122.66C61.68 122.43 24.14 106.93 29.31 103.85C32.38 102.02 36.16 94.27 38.74 88.2C40.55 83.97 41.74 80.55 41.74 80.55C41.74 80.55 71.87 75.2 61.09 93.67C59.3887 96.4994 58.1086 99.5616 57.29 102.76C54.24 115.34 61.97 122.43 62.23 122.66Z" fill="#FEC2BE"/>
<path id="Vector_25" opacity="0.1" d="M61.12 93.67C59.4187 96.4994 58.1386 99.5616 57.32 102.76C53.4963 102.498 49.8172 101.195 46.6813 98.9916C43.5454 96.7882 41.0723 93.7686 39.53 90.26C39.2297 89.5881 38.9659 88.9004 38.74 88.2C40.55 83.97 41.74 80.55 41.74 80.55C41.74 80.55 71.9 75.2 61.12 93.67Z" fill="black"/>
<path id="Vector_26" d="M79.84 81.07C79.8413 85.8996 78.1818 90.5827 75.14 94.3339C72.0981 98.0851 67.8588 100.676 63.1332 101.673C58.4076 102.669 53.483 102.01 49.1855 99.8068C44.888 97.6032 41.4789 93.9889 39.53 89.57C38.3421 86.8941 37.7321 83.9977 37.74 81.07C37.7371 75.9951 39.5677 71.09 42.8948 67.2579C46.2218 63.4257 50.8213 60.9246 55.8463 60.2149C60.8713 59.5052 65.9836 60.6348 70.2418 63.3957C74.4999 66.1565 77.6174 70.3628 79.02 75.24C79.5685 77.1346 79.8446 79.0976 79.84 81.07V81.07Z" fill="#FEC2BE"/>
<path id="Vector_27" opacity="0.1" d="M100.18 244.2C97.98 246.2 97.13 250.02 97.13 250.02C97.13 250.02 86.78 257.09 87.47 252.6C88.16 248.11 82.12 230 82.12 230L82.81 254.67C82.81 254.67 49.67 253.12 47.26 250.67C44.85 248.22 30.69 243.59 30.69 243.59C30.69 243.59 26.36 247.07 22.38 249.71C21.85 246.71 21.46 244.11 21.46 244.11L35.7 232.63L71.18 223.35L84.56 219.04L97.56 239.57C97.56 239.57 98.96 241.75 100.18 244.2Z" fill="black"/>
<path id="Vector_28" d="M101.24 242.25C98.48 243.98 97.44 248.63 97.44 248.63C97.44 248.63 87.09 255.71 87.78 251.22C88.47 246.73 82.43 228.62 82.43 228.62L83.12 253.29C83.12 253.29 49.99 251.74 47.57 249.29C45.15 246.84 31.01 242.22 31.01 242.22C31.01 242.22 18.75 252.06 16.51 251.22C14.27 250.38 20.51 233.62 20.51 233.62L26.89 135.62C26.89 135.62 25.17 106.46 27.76 105.42C28.1578 105.26 28.5235 105.029 28.84 104.74C30.55 103.21 31.06 100.1 31.21 97.48C31.38 94.38 35.52 95.93 35.52 95.93L33.11 99.04L54.49 112.04L54.68 112.15C55.5136 111.714 56.3717 111.327 57.25 110.99C59.14 110.26 61.66 109.57 63.31 110.25C64.2245 110.709 65.0035 111.398 65.57 112.25C66.7901 114.083 67.7682 116.066 68.48 118.15L76.18 131.29C76.18 131.29 80.18 148.72 80.18 149.41C80.18 150.1 81.39 165.97 82.77 167.7C84.15 169.43 85.53 178.05 85.01 180.64C84.49 183.23 85.87 192.9 85.87 192.9C91.57 197.55 94.5 213.43 94.5 213.43C94.5 213.43 103.5 231.21 104.16 233.28C104.82 235.35 104 240.52 101.24 242.25Z" fill="white"/>
<path id="Vector_29" opacity="0.1" d="M54.46 112.75C52.36 115.86 46.31 120.23 46.31 120.23L28.81 105.45C30.52 103.92 31.03 100.81 31.18 98.2C31.35 95.09 35.49 96.64 35.49 96.64L34.99 97.29C34.7497 97.5993 34.5775 97.9559 34.4847 98.3364C34.3919 98.7169 34.3805 99.1127 34.4513 99.4979C34.5221 99.8832 34.6735 100.249 34.8956 100.572C35.1177 100.894 35.4054 101.166 35.74 101.37L54.46 112.75Z" fill="black"/>
<path id="Vector_30" d="M54.46 112.02C52.36 115.13 46.31 119.49 46.31 119.49L28.81 104.75C30.52 103.22 31.03 100.11 31.18 97.49C31.35 94.39 35.49 95.94 35.49 95.94L34.99 96.59C34.7497 96.8993 34.5775 97.2559 34.4847 97.6364C34.3919 98.0169 34.3805 98.4128 34.4513 98.798C34.5221 99.1832 34.6735 99.5491 34.8956 99.8717C35.1177 100.194 35.4054 100.466 35.74 100.67L54.46 112.02Z" fill="white"/>
<g id="picture">
<path id="Vector_31" d="M246.75 62H120.59C112.902 62 106.67 68.2322 106.67 75.92V247.08C106.67 254.768 112.902 261 120.59 261H246.75C254.438 261 260.67 254.768 260.67 247.08V75.92C260.67 68.2322 254.438 62 246.75 62Z" fill="#1D7DDC"/>
<path id="Vector_32" d="M238.64 261H128.7C129.073 252.654 132.651 244.774 138.688 239C144.725 233.226 152.756 230.002 161.11 230H206.23C214.584 230.002 222.615 233.226 228.652 239C234.689 244.774 238.267 252.654 238.64 261V261Z" fill="#F2F2F2"/>
<path id="Vector_33" d="M183.66 218C204.095 218 220.66 201.435 220.66 181C220.66 160.565 204.095 144 183.66 144C163.225 144 146.66 160.565 146.66 181C146.66 201.435 163.225 218 183.66 218Z" fill="#F2F2F2"/>
</g>
<path id="Vector_34" opacity="0.1" d="M62.55 114.35C60.29 117.05 57.09 120.11 57.24 118.58C57.39 117.05 55.33 113.65 54.01 112.13C56.0603 111.48 58.2704 111.543 60.28 112.31C61.2086 112.77 61.9936 113.476 62.55 114.35V114.35Z" fill="black"/>
<path id="Vector_35" d="M62.89 113.31C60.63 116.01 57.43 119.08 57.58 117.54C57.73 116 55.88 113.54 54.58 112C56.47 111.27 58.99 110.59 60.64 111.27C61.5576 111.738 62.3342 112.443 62.89 113.31V113.31Z" fill="white"/>
<path id="Vector_36" d="M57.23 127.66C57.9921 127.66 58.61 127.042 58.61 126.28C58.61 125.518 57.9921 124.9 57.23 124.9C56.4678 124.9 55.85 125.518 55.85 126.28C55.85 127.042 56.4678 127.66 57.23 127.66Z" fill="#192534"/>
<path id="Vector_37" d="M67.7 164.94C68.4622 164.94 69.08 164.322 69.08 163.56C69.08 162.798 68.4622 162.18 67.7 162.18C66.9379 162.18 66.32 162.798 66.32 163.56C66.32 164.322 66.9379 164.94 67.7 164.94Z" fill="#192534"/>
<path id="Vector_38" d="M79.55 202.67C80.3121 202.67 80.93 202.052 80.93 201.29C80.93 200.528 80.3121 199.91 79.55 199.91C78.7878 199.91 78.17 200.528 78.17 201.29C78.17 202.052 78.7878 202.67 79.55 202.67Z" fill="#192534"/>
<path id="Vector_39" d="M79.9 243.74C80.6621 243.74 81.28 243.122 81.28 242.36C81.28 241.598 80.6621 240.98 79.9 240.98C79.1378 240.98 78.52 241.598 78.52 242.36C78.52 243.122 79.1378 243.74 79.9 243.74Z" fill="#192534"/>
<path id="Vector_40" d="M63.33 145.26C64.0922 145.26 64.71 144.642 64.71 143.88C64.71 143.118 64.0922 142.5 63.33 142.5C62.5679 142.5 61.95 143.118 61.95 143.88C61.95 144.642 62.5679 145.26 63.33 145.26Z" fill="#192534"/>
<path id="Vector_41" d="M72.65 183.57C73.4121 183.57 74.03 182.952 74.03 182.19C74.03 181.428 73.4121 180.81 72.65 180.81C71.8878 180.81 71.27 181.428 71.27 182.19C71.27 182.952 71.8878 183.57 72.65 183.57Z" fill="#192534"/>
<path id="Vector_42" d="M81.74 221.19C82.5021 221.19 83.12 220.572 83.12 219.81C83.12 219.048 82.5021 218.43 81.74 218.43C80.9778 218.43 80.36 219.048 80.36 219.81C80.36 220.572 80.9778 221.19 81.74 221.19Z" fill="#192534"/>
<path id="Vector_43" d="M5.23999 149.64L2.17999 158.5C2.17999 158.5 9.53999 185.88 12.99 191.63C16.44 197.38 21.46 204.75 21.46 204.75C27.2238 207.345 33.6337 208.149 39.86 207.06C49.76 205.06 78.63 199.92 78.63 199.92C79.3123 200.044 80.0154 199.981 80.6649 199.738C81.3144 199.495 81.8862 199.081 82.32 198.54C83.58 196.69 90.18 195.75 90.18 195.75C90.18 195.75 97.77 184.75 88.45 180.11C88.45 180.11 87.3 182.64 82.36 180.91C77.42 179.18 75.91 182.29 75.91 182.29C75.91 182.29 67.86 183.9 63.37 183.29C58.88 182.68 47.73 182.48 46.58 181.56C46.2891 181.302 45.9081 181.17 45.5202 181.193C45.1323 181.215 44.7691 181.39 44.51 181.68C43.1721 181.198 41.9247 180.495 40.82 179.6C39.9 178.6 38.64 180.76 38.64 180.76C38.64 180.76 37.03 179.83 37.49 178.68C37.95 177.53 35.99 173.16 35.99 173.16C35.4712 171.487 35.3547 169.716 35.65 167.99C36.22 165.68 32.77 157.4 32.77 157.4C32.7262 156.005 32.8811 154.611 33.23 153.26C33.81 151.19 28.86 147.05 28.86 147.05C28.86 147.05 24.03 123.58 13.79 131.29C3.54999 139 5.23999 149.64 5.23999 149.64Z" fill="#192534"/>
<path id="Vector_44" d="M88.41 181.39C88.41 181.39 102.1 172.39 108.72 176.85C115.34 181.31 126.15 187.55 115.51 192.09C104.87 196.63 90.18 195.75 90.18 195.75L88.41 181.39Z" fill="#FEC2BE"/>
<path id="Vector_45" opacity="0.1" d="M53.18 79.75C52.9373 78.9434 52.4858 78.2152 51.8712 77.6392C51.2566 77.0632 50.5007 76.6599 49.68 76.47C47.25 76.1 45.22 78.22 43.79 80.22C42.2936 82.3223 40.9309 84.5166 39.71 86.79C39.34 87.48 38.71 89.68 38.06 90.06C37.18 90.58 36.79 89.21 36.44 88.43C34.66 84.48 35.05 79.94 34.28 75.75C33.6572 73.3144 33.1632 70.8476 32.8 68.36C32.53 71.36 33.71 74.53 34.28 77.59C35.05 81.78 34.66 86.32 36.44 90.28C36.79 91.05 37.18 92.42 38.06 91.9C38.71 91.52 39.34 89.32 39.71 88.63C40.9309 86.3566 42.2936 84.1623 43.79 82.06C45.22 80.06 47.25 77.94 49.68 78.31C50.5007 78.4999 51.2566 78.9032 51.8712 79.4792C52.4858 80.0552 52.9373 80.7834 53.18 81.59C53.4604 82.4262 53.6187 83.2985 53.65 84.18C53.7712 82.6869 53.6118 81.1844 53.18 79.75V79.75Z" fill="black"/>
<path id="Vector_46" opacity="0.1" d="M89.18 68.86C88.9051 69.9051 88.3563 70.8579 87.59 71.62C85.49 73.38 82.17 71.72 79.59 72.7C79.0793 72.9489 78.5552 73.1692 78.02 73.36C76.4 73.8 74.82 72.71 73.38 71.84C71.94 70.97 69.96 70.32 68.71 71.45C67.09 72.92 68.27 76.07 66.6 77.5C65.53 78.4 63.86 78.09 62.68 78.83C61.5 79.57 61.15 81.19 60.85 82.59C60.55 83.99 59.96 85.59 58.58 86C57.2 86.41 55.94 85.51 54.58 85.56C54.3 85.56 53.98 85.61 53.79 85.4C53.7474 85.3493 53.7136 85.2919 53.69 85.23C53.69 85.69 53.69 86.16 53.69 86.62C53.6715 86.7275 53.6743 86.8376 53.6983 86.9439C53.7223 87.0503 53.7671 87.1509 53.83 87.24C54.02 87.45 54.34 87.41 54.62 87.4C55.97 87.4 57.32 88.23 58.62 87.84C59.92 87.45 60.62 85.84 60.89 84.44C61.16 83.04 61.5 81.44 62.72 80.67C63.94 79.9 65.57 80.24 66.64 79.34C68.31 77.92 67.13 74.76 68.75 73.34C70 72.21 71.99 72.86 73.42 73.73C74.85 74.6 76.42 75.73 78.06 75.26C78.61 75.11 79.06 74.79 79.63 74.59C82.19 73.59 85.51 75.27 87.63 73.51C88.3817 72.7433 88.9165 71.7909 89.18 70.75C89.7603 69.3441 90.1537 67.8682 90.35 66.36C90.405 65.8481 90.405 65.3319 90.35 64.82C90.1202 66.208 89.7275 67.564 89.18 68.86V68.86Z" fill="black"/>
<path id="Vector_47" opacity="0.1" d="M80.02 186.68C79.9 187.49 77.37 190.68 78.29 191.28C79.21 191.88 80.71 191.51 79.29 193.36C77.87 195.21 78.03 197.96 78.95 197.61C79.87 197.26 81.37 193.13 81.37 191.51C81.1464 189.845 80.6921 188.22 80.02 186.68V186.68Z" fill="black"/>
<path id="Vector_48" opacity="0.1" d="M88.9 398.25C88.9 398.25 91.15 396.25 93.39 397.25C95.63 398.25 88.9 398.25 88.9 398.25Z" fill="black"/>
<path id="Vector_49" opacity="0.1" d="M60.26 419.65C60.4073 420.379 60.7623 421.05 61.2821 421.583C61.8019 422.115 62.4645 422.486 63.19 422.65L60.26 419.65Z" fill="black"/>
<path id="Vector_50" d="M126.09 427.75C125.23 431.29 113.15 431.63 107.37 430.68C101.59 429.73 89.59 426.28 89.59 426.28C89.59 426.28 77 425.08 73.29 423.52C69.58 421.96 72.51 418 72.51 418V417.63C72.42 416.19 72.17 410.95 73.06 409.54C74.06 407.91 73.49 402.54 73.49 402.54C73.49 402.54 91.35 405.99 91.69 404.35C92.03 402.71 94.8 400.35 96.09 399.86C97.38 399.37 98.34 404.18 98.34 404.18C98.34 404.18 106.45 411.08 106.97 413.58C107.49 416.08 113.18 417.38 113.18 417.38C113.18 417.38 121.81 419.79 124.05 421C124.701 421.307 125.262 421.776 125.679 422.363C126.096 422.95 126.354 423.634 126.43 424.35C126.527 425.495 126.412 426.647 126.09 427.75V427.75Z" fill="#3F3D56"/>
<path id="Vector_51" opacity="0.1" d="M126.09 427.75C125.23 431.29 113.15 431.63 107.37 430.68C101.59 429.73 89.59 426.28 89.59 426.28C89.59 426.28 77 425.08 73.29 423.52C69.58 421.96 72.51 418 72.51 418V417.63L90.57 421.63C90.57 421.63 99.46 425.43 105.15 425.43C110.15 425.43 121.26 427.43 126.43 424.43C126.517 425.548 126.402 426.673 126.09 427.75V427.75Z" fill="black"/>
<path id="Vector_52" opacity="0.1" d="M101.67 414.13C101.67 414.13 100.81 419.82 97.36 421.72L101.67 414.13Z" fill="black"/>
<path id="Vector_53" opacity="0.1" d="M79.02 75.24C78.7001 75.4128 78.3655 75.5567 78.02 75.67C76.4 76.1 74.82 75.01 73.38 74.14C71.94 73.27 69.96 72.62 68.71 73.75C67.09 75.22 68.27 78.38 66.6 79.8C65.54 80.7 63.86 80.39 62.68 81.13C61.5 81.87 61.15 83.49 60.85 84.89C60.55 86.29 59.96 87.89 58.59 88.3C57.22 88.71 55.94 87.81 54.59 87.86C54.31 87.86 53.99 87.91 53.8 87.7C53.7371 87.6109 53.6923 87.5103 53.6683 87.4039C53.6443 87.2976 53.6415 87.1875 53.66 87.08C53.8363 85.4012 53.6903 83.7041 53.23 82.08C52.9862 81.2713 52.5332 80.5412 51.9169 79.9635C51.3007 79.3859 50.5428 78.9811 49.72 78.79C47.3 78.42 45.26 80.54 43.83 82.54C42.3336 84.6423 40.9709 86.8366 39.75 89.11C39.6745 89.2559 39.6077 89.4062 39.55 89.56C38.3621 86.8841 37.7521 83.9877 37.76 81.06C37.7571 75.9851 39.5878 71.08 42.9148 67.2479C46.2418 63.4157 50.8413 60.9146 55.8663 60.2049C60.8914 59.4952 66.0036 60.6248 70.2618 63.3857C74.52 66.1465 77.6374 70.3528 79.04 75.23L79.02 75.24Z" fill="black"/>
<path id="Vector_54" d="M43.81 82.2C45.24 80.2 47.27 78.09 49.7 78.46C50.5199 78.65 51.2745 79.055 51.8861 79.6332C52.4977 80.2114 52.9443 80.942 53.18 81.75C53.6481 83.3726 53.7975 85.0705 53.62 86.75C53.582 86.9702 53.6323 87.1966 53.76 87.38C53.95 87.58 54.27 87.55 54.55 87.54C55.9 87.54 57.25 88.37 58.55 87.98C59.85 87.59 60.55 85.98 60.82 84.57C61.09 83.16 61.43 81.57 62.65 80.81C63.87 80.05 65.5 80.38 66.57 79.47C68.23 78.05 67.06 74.9 68.68 73.42C69.93 72.3 71.92 72.94 73.35 73.81C74.78 74.68 76.35 75.81 77.99 75.34C78.5253 75.1458 79.0495 74.9222 79.56 74.67C82.12 73.67 85.44 75.35 87.56 73.6C88.3263 72.8379 88.8751 71.8851 89.15 70.84C89.7316 69.4311 90.125 67.9517 90.32 66.44C90.5007 64.9155 90.0811 63.3806 89.15 62.16C87.78 60.54 85.47 60.16 83.72 58.95C82.298 57.8361 81.1174 56.4445 80.25 54.86C79.3832 53.2751 78.2422 51.8565 76.88 50.67C76.1883 50.0866 75.3497 49.7044 74.4556 49.5651C73.5616 49.4258 72.6464 49.5347 71.81 49.88C71.3045 50.2316 70.7433 50.4953 70.15 50.66C69.5049 50.6709 68.87 50.4974 68.32 50.16C62.32 47.34 55.37 47.84 48.81 48.68C46.1656 48.8968 43.5712 49.5243 41.12 50.54C39.8991 51.0589 38.8044 51.8349 37.9105 52.8151C37.0166 53.7952 36.3445 54.9566 35.94 56.22C35.4 58.22 35.81 60.45 35.17 62.44C34.73 63.8 33.83 64.96 33.32 66.29C31.93 69.93 33.6 73.93 34.32 77.76C35.09 81.95 34.7 86.48 36.48 90.44C36.83 91.22 37.22 92.58 38.1 92.07C38.75 91.69 39.38 89.48 39.75 88.79C40.966 86.5116 42.3219 84.3108 43.81 82.2V82.2Z" fill="#192534"/>
<path id="Vector_55" opacity="0.1" d="M5.93001 149.64L2.82001 158.5C2.82001 158.5 10.18 185.88 13.63 191.63C17.08 197.38 22.18 204.75 22.18 204.75C27.9438 207.345 34.3537 208.149 40.58 207.06C50.48 205.06 79.35 199.92 79.35 199.92C80.0323 200.044 80.7354 199.981 81.3849 199.738C82.0344 199.495 82.6062 199.081 83.04 198.54C84.3 196.7 90.86 195.78 90.86 195.78C90.86 195.78 98.45 184.78 89.13 180.14C89.13 180.14 87.98 182.67 83.04 180.94C78.1 179.21 76.59 182.32 76.59 182.32C76.59 182.32 68.59 183.93 64.05 183.32C59.51 182.71 48.41 182.51 47.26 181.59C47.1132 181.463 46.9428 181.367 46.7586 181.306C46.5744 181.246 46.38 181.222 46.1867 181.237C45.9934 181.252 45.8049 181.305 45.6321 181.393C45.4593 181.481 45.3057 181.602 45.18 181.75C43.8421 181.268 42.5947 180.565 41.49 179.67C40.57 178.67 39.31 180.83 39.31 180.83C39.31 180.83 37.7 179.9 38.16 178.75C38.62 177.6 36.66 173.23 36.66 173.23C36.1412 171.557 36.0247 169.786 36.32 168.06C36.89 165.75 33.44 157.47 33.44 157.47C33.3962 156.075 33.5511 154.681 33.9 153.33C34.48 151.26 29.53 147.12 29.53 147.12C29.53 147.12 24.7 123.65 14.46 131.36C4.22001 139.07 5.93001 149.64 5.93001 149.64Z" fill="black"/>
<path id="Vector_56" opacity="0.1" d="M27.09 209.46C26.75 209.69 20.88 222.12 20.19 218.78C19.5 215.44 25.25 227.87 26.19 218.67L27.09 209.46Z" fill="black"/>
<path id="Vector_57" opacity="0.1" d="M56.92 109.49C56.92 109.49 63.33 105.58 71.39 115.58C71.39 115.58 77.25 118.92 78.98 119.73C80.71 120.54 82.66 141.93 82.66 141.93C82.66 141.93 86.46 151.13 85.42 156.43C84.38 161.73 88.42 179.89 88.42 179.89C88.42 179.89 95.1 212.57 94.87 213.49C94.64 214.41 88.07 203.25 88.18 197.75C88.29 192.25 82.66 174.97 81.86 173.93C81.06 172.89 75.53 143.33 75.53 143.33C75.53 143.33 71.04 130.75 68.18 126.63C65.32 122.51 61.73 114.63 60.24 113.28C59.1635 112.35 57.9617 111.576 56.67 110.98L56.92 109.49Z" fill="black"/>
<path id="Vector_58" d="M56.83 109.49C56.83 109.49 64.02 105.58 72.08 115.58C72.08 115.58 77.94 118.92 79.67 119.73C81.4 120.54 83.35 141.93 83.35 141.93C83.35 141.93 87.15 151.13 86.11 156.43C85.07 161.73 89.11 179.89 89.11 179.89C89.11 179.89 95.79 212.57 95.56 213.49C95.33 214.41 88.77 203.25 88.88 197.73C88.99 192.21 83.36 174.95 82.56 173.91C81.76 172.87 76.23 143.31 76.23 143.31C76.23 143.31 71.74 130.77 68.87 126.63C66 122.49 62.42 114.63 60.93 113.28C59.6518 112.276 58.2109 111.498 56.67 110.98L56.83 109.49Z" fill="#192534"/>
<path id="Vector_59" opacity="0.1" d="M78.89 267.96C76.89 272.34 75.18 294.33 74.03 301.31C72.39 298.51 70.41 295.15 69.75 294.11C68.9 292.77 66.86 287.11 65.75 283.85C67.05 280.69 70.64 271.63 70.64 268.31C70.64 264.25 77.2 259.16 77.2 259.16C78.3765 260.259 79.1739 261.704 79.4776 263.285C79.7812 264.866 79.5755 266.503 78.89 267.96V267.96Z" fill="black"/>
<path id="Vector_60" opacity="0.1" d="M34.89 335.52C34.89 335.52 50.07 329.05 54.56 333.62C59.05 338.19 34.89 335.52 34.89 335.52Z" fill="black"/>
<path id="Vector_61" opacity="0.1" d="M43.43 338.11C43.43 338.11 28.07 346.74 33.34 348.21C38.61 349.68 43.43 338.11 43.43 338.11Z" fill="black"/>
<path id="Vector_62" opacity="0.1" d="M89.33 330.6C89.33 330.6 82.78 331.04 85.28 332.33C87.78 333.62 89.33 330.6 89.33 330.6Z" fill="black"/>
<path id="Vector_63" opacity="0.1" d="M97.53 332.59C97.44 333.02 78.46 339.15 82.17 341.91C85.88 344.67 97.53 332.59 97.53 332.59Z" fill="black"/>
<path id="Vector_64" opacity="0.1" d="M37.18 385.4C40.03 384.96 55.91 377.63 49.69 382.89C48.0297 384.406 45.9877 385.44 43.7836 385.882C41.5794 386.325 39.2965 386.158 37.18 385.4V385.4Z" fill="black"/>
<path id="Vector_65" opacity="0.1" d="M44.98 391.18C44.98 391.18 46.36 396.53 51.63 395.84C56.9 395.15 44.98 391.18 44.98 391.18Z" fill="black"/>
<path id="Vector_66" opacity="0.1" d="M40.58 402.05C41.53 401.79 52.84 396.61 53.09 399.05C53.34 401.49 42.31 405.69 41.45 404.4C40.9491 403.712 40.648 402.899 40.58 402.05Z" fill="black"/>
<path id="Vector_67" opacity="0.1" d="M77.18 395.84C78.56 395.75 91.5 391.61 94.09 395.32L77.18 395.84Z" fill="black"/>
<path id="Vector_68" d="M79.67 248.34C80.4322 248.34 81.05 247.722 81.05 246.96C81.05 246.198 80.4322 245.58 79.67 245.58C78.9079 245.58 78.29 246.198 78.29 246.96C78.29 247.722 78.9079 248.34 79.67 248.34Z" fill="#192534"/>
<path id="Vector_69" opacity="0.1" d="M28.82 105.58C28.82 105.58 29.05 103.5 26.06 107.07C23.07 110.64 17.43 113.74 17.43 113.74C17.43 113.74 4.65996 122.74 3.96996 126.86C3.27996 130.98 -0.860029 148.95 1.31997 154.93C3.49997 160.91 20.18 189.56 20.18 189.56C20.18 189.56 15.81 194.74 16.85 200.83C17.89 206.92 19.15 215.33 18.57 217.17C17.99 219.01 19.26 223.61 17.31 225.22C15.36 226.83 13.31 229.59 19.38 233.28C19.38 233.28 20.53 236.38 19.49 237.07C18.45 237.76 34.79 244.9 41.23 241.07C47.67 237.24 59.3 206.9 59.53 200.07C59.76 193.24 55.96 170.85 53.89 165.56C51.82 160.27 45.61 139.67 42.96 135.07C40.31 130.47 28.82 105.58 28.82 105.58Z" fill="black"/>
<path id="Vector_70" d="M28.18 105.58C28.18 105.58 28.41 103.5 25.42 107.07C22.43 110.64 16.79 113.74 16.79 113.74C16.79 113.74 4.02001 122.74 3.33001 126.86C2.64001 130.98 -1.49998 148.95 0.680017 154.93C2.86002 160.91 19.55 189.56 19.55 189.56C19.55 189.56 15.18 194.75 16.18 200.83C17.18 206.91 18.49 215.33 17.91 217.17C17.33 219.01 18.6 223.61 16.65 225.22C14.7 226.83 12.65 229.59 18.72 233.28C18.72 233.28 19.87 236.38 18.83 237.07C17.79 237.76 34.13 244.9 40.57 241.07C47.01 237.24 58.64 206.9 58.87 200.07C59.1 193.24 55.3 170.85 53.23 165.56C51.16 160.27 44.93 139.75 42.28 135.14C39.63 130.53 28.18 105.58 28.18 105.58Z" fill="#192534"/>
<path id="Vector_71" opacity="0.1" d="M23.53 125.13C23.53 125.13 33.42 136.06 33.08 143.31C33.08 143.31 33.18 131.58 23.53 125.13Z" fill="black"/>
<path id="Vector_72" opacity="0.1" d="M37.18 143.08C37.18 143.43 43.85 168.28 43.51 171.38C43.17 174.48 45.46 183.69 45.46 183.69L48.57 182.89C48.57 182.89 46.15 170.12 45.69 165.4C45.23 160.68 37.18 143.08 37.18 143.08Z" fill="black"/>
<path id="Vector_73" opacity="0.1" d="M39.86 213.95C39.63 214.29 24.1 231.9 28.47 233.16C32.84 234.42 39.86 213.95 39.86 213.95Z" fill="black"/>
</g>
<g id="flower">
<g id="earth">
<path id="Vector_74" d="M854.79 414.29C854.79 414.29 865.87 413.95 869.2 411.58C872.53 409.21 886.2 406.36 887.07 410.17C887.94 413.98 903.72 429.17 891.21 429.23C878.7 429.29 862.15 427.29 858.82 425.23C855.49 423.17 854.79 414.29 854.79 414.29Z" fill="#656380"/>
<path id="Vector_75" opacity="0.2" d="M891.44 427.91C878.93 428.01 862.38 425.96 859.04 423.91C856.51 422.36 855.5 416.82 855.16 414.26H854.79C854.79 414.26 855.49 423.2 858.79 425.26C862.09 427.32 878.68 429.34 891.18 429.26C894.79 429.26 896.04 427.95 895.97 426.05C895.5 427.17 894.12 427.89 891.44 427.91Z" fill="black"/>
</g>
<g id="stem">
<path id="Vector_76" d="M875.95 420.64C878.95 415.13 875.55 408.37 871.67 403.46C867.79 398.55 863.06 393.46 863.16 387.17C863.3 378.17 872.86 372.86 880.49 368.09C886.149 364.544 891.371 360.345 896.05 355.58C898.005 353.739 899.623 351.569 900.83 349.17C902.41 345.66 902.36 341.65 902.26 337.8C901.933 324.96 901.3 312.13 900.36 299.31" stroke="#3F3D56" stroke-width="4" stroke-miterlimit="10"/>
</g>
<g id="plants">
<path id="Vector_77" d="M889.84 393.6C888.446 396.375 886.169 398.608 883.366 399.947C880.564 401.286 877.396 401.656 874.361 400.997C871.326 400.339 868.596 398.689 866.601 396.309C864.606 393.929 863.459 390.953 863.34 387.85C863.24 385.907 863.55 383.965 864.25 382.15C865.256 379.47 867.059 377.162 869.417 375.538C871.775 373.915 874.574 373.053 877.437 373.069C880.3 373.086 883.089 373.979 885.428 375.63C887.768 377.28 889.545 379.608 890.52 382.3L881.75 389.44L891.39 387.2C891.397 389.427 890.865 391.623 889.84 393.6Z" fill="#57B894"/>
<path id="Vector_78" d="M882.91 366.35C879.422 366.6 875.966 365.535 873.223 363.365C870.48 361.195 868.649 358.077 868.09 354.625C867.531 351.172 868.284 347.636 870.201 344.711C872.118 341.786 875.061 339.684 878.45 338.82L878.38 344.6L881.56 338.31C885.273 338.136 888.903 339.445 891.651 341.947C894.4 344.45 896.041 347.942 896.215 351.655C896.389 355.368 895.08 358.998 892.578 361.746C890.075 364.495 886.583 366.136 882.87 366.31L882.91 366.35Z" fill="#57B894"/>
<path id="Vector_79" d="M916.98 343.68C915.142 343.767 913.304 343.49 911.572 342.867C909.841 342.243 908.248 341.285 906.887 340.046C905.526 338.807 904.422 337.313 903.638 335.647C902.855 333.982 902.407 332.179 902.32 330.34C902.233 328.501 902.51 326.664 903.133 324.932C903.757 323.2 904.715 321.608 905.954 320.247C907.193 318.886 908.687 317.782 910.353 316.998C912.018 316.215 913.822 315.767 915.66 315.68C918.285 315.549 920.892 316.167 923.18 317.46L920.7 324.25L925.81 319.35C928.543 321.853 930.172 325.338 930.34 329.04C930.409 330.341 930.288 331.644 929.98 332.91C929.28 335.875 927.632 338.531 925.286 340.475C922.94 342.419 920.024 343.544 916.98 343.68V343.68Z" fill="#57B894"/>
<path id="Vector_80" d="M914.87 298.61C914.764 296.259 914.067 293.973 912.843 291.963C911.62 289.953 909.909 288.284 907.87 287.11L904.73 293.33L904.82 285.8C903.322 285.358 901.76 285.172 900.2 285.25C897.438 285.387 894.777 286.339 892.556 287.987C890.334 289.634 888.65 291.903 887.716 294.506C886.782 297.11 886.64 299.931 887.309 302.615C887.977 305.299 889.425 307.725 891.471 309.587C893.516 311.448 896.068 312.662 898.803 313.076C901.537 313.489 904.333 313.083 906.838 311.908C909.342 310.734 911.442 308.844 912.873 306.478C914.305 304.111 915.003 301.373 914.88 298.61H914.87Z" fill="#57B894"/>
</g>
</g>
</g>
</svg>
