<svg width="414" height="756" viewBox="0 0 414 756" fill="none" xmlns="http://www.w3.org/2000/svg">
<g id="character">
<path id="Vector" d="M293.823 119.254L300.235 122.368C300.235 122.368 314.225 150.93 314.808 155.011C315.391 159.091 324.717 174.246 321.219 178.327C317.722 182.407 312.476 192.899 315.973 196.979C319.471 201.059 327.631 217.381 327.631 223.21C327.631 229.039 318.888 244.777 324.717 246.525C330.546 248.274 328.797 271.007 327.631 272.756C326.466 274.504 311.31 303.066 311.31 303.066C311.31 303.066 308.396 270.424 279.834 283.831C279.834 283.831 277.502 267.51 279.834 266.344C282.165 265.178 287.994 258.183 283.331 257.018C278.668 255.852 272.256 241.862 273.422 240.114C274.588 238.365 277.502 236.033 274.588 234.285C271.673 232.536 269.342 222.627 269.925 220.878C270.507 219.129 263.513 210.969 263.513 210.969L293.823 119.254Z" fill="#575A89"/>
<path id="Vector_2" d="M269.579 755.801C349.341 755.801 414 747.41 414 737.059C414 726.708 349.341 718.317 269.579 718.317C189.818 718.317 125.158 726.708 125.158 737.059C125.158 747.41 189.818 755.801 269.579 755.801Z" fill="#3F3D56"/>
<path id="Vector_3" d="M114.874 101.967H109.045C109.045 101.967 103.216 97.3039 96.2214 100.218C89.2267 103.133 72.9055 99.0526 72.9055 100.801C72.9055 102.55 54.8358 95.5552 47.2581 99.0526C39.6805 102.55 12.2843 103.716 12.2843 103.716C12.2843 103.716 1.20932 131.695 8.78695 136.941C16.3646 142.187 27.4396 138.107 32.6857 142.187C37.9318 146.267 47.841 141.604 51.3384 146.85C54.8358 152.096 67.6595 161.423 70.574 155.594C73.4885 149.765 67.6595 144.519 79.9003 150.93C92.1411 157.342 111.377 157.342 111.377 157.342L114.874 101.967Z" fill="#575A89"/>
<path id="Vector_4" d="M18.3076 103.682C28.9361 104.144 36.8334 113.783 35.6836 124.359C34.642 133.941 30.7996 145.864 18.6962 150.444C-2.87096 158.604 -1.70518 112.555 2.37509 110.807C5.09532 109.641 9.3699 103.294 18.3076 103.682Z" fill="#FFB9B9"/>
<path id="Vector_5" d="M225.624 66.9933C225.624 66.9933 221.544 97.3039 232.036 100.801C242.528 104.299 239.614 131.112 239.614 131.112L208.138 155.011L180.159 157.342L173.164 121.203L177.244 111.876C177.244 111.876 192.982 93.2237 181.907 73.9881C170.832 54.7525 225.624 66.9933 225.624 66.9933Z" fill="#FFB9B9"/>
<path id="Vector_6" opacity="0.1" d="M225.624 66.9933C225.624 66.9933 221.544 97.3039 232.036 100.801C242.528 104.299 239.614 131.112 239.614 131.112L208.138 155.011L180.159 157.342L173.164 121.203L177.244 111.876C177.244 111.876 192.982 93.2237 181.907 73.9881C170.832 54.7525 225.624 66.9933 225.624 66.9933Z" fill="black"/>
<path id="Vector_7" d="M196.48 303.066L159.757 389.335C159.757 389.335 131.195 373.014 114.291 374.763C97.3872 376.511 76.403 356.11 76.403 356.11L97.3872 254.686L136.441 146.85L190.651 181.241L196.48 303.066Z" fill="#575A89"/>
<path id="Vector_8" opacity="0.1" d="M196.48 303.066L159.757 389.335C159.757 389.335 131.195 373.014 114.291 374.763C97.3872 376.511 76.403 356.11 76.403 356.11L97.3872 254.686L136.441 146.85L190.651 181.241L196.48 303.066Z" fill="black"/>
<path id="Vector_9" d="M254.186 669.708V697.687H227.956L232.036 665.045L254.186 669.708Z" fill="#575A89"/>
<path id="Vector_10" d="M322.385 621.328L341.621 632.986L327.631 665.045L313.059 663.296L299.069 643.478L322.385 621.328Z" fill="#575A89"/>
<path id="Vector_11" d="M259.432 294.906L293.823 375.928C293.823 375.928 281.582 465.694 282.165 473.272C282.748 480.85 283.331 483.764 280.417 490.176C277.502 496.588 276.336 500.668 278.085 508.246C279.834 515.824 280.417 518.738 279.251 521.653C278.085 524.567 269.925 644.644 265.844 652.804C261.764 660.965 268.176 674.371 264.096 675.537C260.015 676.703 229.705 673.789 227.956 666.794C226.207 659.799 233.785 642.895 229.705 637.649C225.624 632.403 230.288 443.544 224.459 430.721C218.63 417.897 154.511 406.239 154.511 406.239C154.511 406.239 148.682 368.934 152.179 363.105C155.677 357.276 160.34 320.553 160.34 320.553L259.432 294.906Z" fill="#2F2E41"/>
<path id="Vector_12" d="M225.624 693.024C225.624 693.024 241.946 673.788 255.935 693.024C255.935 693.024 257.101 715.757 267.01 720.42C276.919 725.083 272.256 743.736 258.267 744.319C244.277 744.902 226.207 747.233 225.624 739.656C225.041 732.078 227.956 727.415 222.71 725.083C217.464 722.752 222.71 709.345 222.71 709.345L225.624 693.024Z" fill="#2F2E41"/>
<path id="Vector_13" d="M227.373 414.4C227.373 414.4 226.79 456.368 222.71 462.197C218.63 468.026 216.298 471.523 218.63 477.935C220.961 484.347 224.459 496.005 222.71 498.337C220.961 500.668 224.459 512.909 224.459 512.909C224.459 512.909 269.342 534.476 290.326 579.359C290.326 579.359 311.893 614.916 318.305 615.499C324.717 616.082 332.294 611.419 328.797 624.825C325.3 638.232 311.893 655.719 301.984 653.97C292.075 652.221 284.497 635.317 284.497 635.317C284.497 635.317 206.972 556.626 198.811 554.295C190.651 551.963 167.335 533.31 163.254 521.653C159.174 509.995 150.431 412.651 154.511 406.239C158.591 399.827 173.747 391.084 173.747 391.084L227.373 414.4Z" fill="#2F2E41"/>
<path id="Vector_14" d="M328.214 618.996C328.214 618.996 364.354 620.162 364.937 628.905C365.52 637.649 349.781 689.527 352.113 701.768C354.444 714.008 334.043 741.987 320.637 736.158C307.23 730.329 317.722 700.019 317.722 700.019C317.722 700.019 304.315 658.633 306.647 658.05C308.979 657.467 332.294 650.473 331.129 643.478C329.963 636.483 328.214 618.996 328.214 618.996Z" fill="#2F2E41"/>
<path id="Vector_15" d="M198.52 98.1783C218.479 98.1783 234.659 81.998 234.659 62.0387C234.659 42.0794 218.479 25.8991 198.52 25.8991C178.56 25.8991 162.38 42.0794 162.38 62.0387C162.38 81.998 178.56 98.1783 198.52 98.1783Z" fill="#FFB9B9"/>
<path id="Vector_16" d="M234.951 117.705C234.951 117.705 215.132 138.69 200.56 135.192C185.987 131.695 178.41 106.63 178.41 106.63L152.18 101.967C152.18 101.967 133.527 184.738 133.527 192.899C133.527 201.06 152.18 289.077 152.18 304.815C152.18 320.553 137.024 329.88 160.34 329.297C183.656 328.714 172.581 321.136 206.389 320.553C240.197 319.97 245.443 327.548 252.438 315.307C257.208 307.321 263.097 300.058 269.925 293.74L257.684 250.606L255.935 128.78C255.935 128.78 240.991 99.6355 234.182 101.967C234.182 101.967 237.865 114.791 234.951 117.705Z" fill="#1D7DDC"/>
<path id="Vector_17" d="M227.771 96.8117C227.771 96.8117 258.85 100.218 267.593 106.63C276.336 113.042 300.818 117.705 300.235 122.368C299.652 127.032 271.673 193.482 271.673 193.482C271.673 193.482 258.85 245.943 269.925 258.183C281 270.424 322.385 403.907 315.391 414.982C308.396 426.058 286.246 381.174 286.246 381.174C286.246 381.174 256.518 284.997 240.197 268.675C223.876 252.354 222.71 164.337 222.71 160.257C222.71 156.176 227.771 96.8117 227.771 96.8117Z" fill="#575A89"/>
<path id="Vector_18" d="M201.778 35.3371C196.887 34.2071 191.811 35.4593 186.857 36.2711C181.904 37.0828 176.445 37.3504 172.256 34.5868C169.161 32.5458 167.259 29.1692 165.472 25.9213C164.727 24.7614 164.23 23.4595 164.013 22.0978C163.803 19.6958 165.331 17.5042 166.954 15.7206C174.491 7.4358 185.505 2.90132 196.612 1.46094C205.742 0.276942 215.262 1.06984 223.693 4.76794C232.125 8.46604 239.373 15.2383 242.688 23.8277C244.214 28.2239 245.168 32.7986 245.524 37.4386C246.025 40.8526 246.09 44.3164 245.716 47.7465C245.269 50.2894 244.601 52.7883 243.718 55.2145L238.227 71.7953C237.832 73.3622 237.095 74.8219 236.068 76.0694C235.54 76.6804 234.829 77.1039 234.04 77.2767C233.251 77.4495 232.428 77.3621 231.693 77.0278C232.133 75.2268 232.2 73.3551 231.89 71.5273C231.718 70.6164 231.278 69.7778 230.625 69.1196C229.972 68.4613 229.137 68.0136 228.228 67.8341C226.204 67.6193 224.475 69.1883 222.555 69.864C221.632 70.1377 220.662 70.2174 219.706 70.0979C218.75 69.9784 217.829 69.6624 217.002 69.1698C216.174 68.6771 215.458 68.0185 214.897 67.2354C214.336 66.4522 213.944 65.5615 213.744 64.6192C213.441 62.7236 213.95 60.6943 213.231 58.9142C212.39 56.8285 210.157 55.7356 208.48 54.2369C206.95 52.8247 205.854 51.005 205.323 48.9916C204.791 46.9782 204.846 44.8549 205.479 42.8713C205.928 41.4914 207.196 40.8641 206.943 39.2789C206.61 37.1992 203.544 35.7452 201.778 35.3371Z" fill="#2F2E41"/>
<path id="Vector_19" d="M182.313 103.572C182.313 103.572 144.019 89.1433 130.612 94.9723C117.206 100.801 109.045 101.967 109.045 101.967L104.382 159.091C104.382 159.091 102.633 241.279 87.478 261.098C72.3227 280.916 62.4135 363.688 64.745 371.848C67.0766 380.009 60.6647 393.998 70.574 390.501C80.4833 387.003 107.879 306.564 107.879 306.564C107.879 306.564 107.879 260.515 124.201 247.691C140.522 234.867 167.335 181.824 168.501 169C169.666 156.177 180.741 120.62 180.741 120.62L182.313 103.572Z" fill="#575A89"/>
<path id="Vector_20" d="M313.642 287.328C313.642 287.328 296.155 319.97 293.823 325.799C291.492 331.628 275.171 371.265 251.855 362.522C228.539 353.778 274.588 311.227 274.588 311.227L285.08 275.67C285.08 275.67 312.476 269.841 313.642 287.328Z" fill="#FFB9B9"/>
</g>
</svg>
